<svg width="26" height="29" viewBox="0 0 26 29" fill="none" xmlns="http://www.w3.org/2000/svg">
<path d="M4.8189 28.895C3.94474 28.895 3.19641 28.5904 2.57391 27.9811C1.95141 27.3719 1.64015 26.6395 1.64015 25.7839V5.56169C1.18983 5.56169 0.812355 5.41261 0.507726 5.11446C0.203096 4.81632 0.0507812 4.44687 0.0507812 4.00613C0.0507812 3.56539 0.203096 3.19595 0.507726 2.8978C0.812355 2.59965 1.18983 2.45058 1.64015 2.45058H7.99764C7.99764 2.00983 8.14996 1.64039 8.45459 1.34224C8.75921 1.04409 9.13669 0.89502 9.58701 0.89502H15.9445C16.3948 0.89502 16.7723 1.04409 17.0769 1.34224C17.3816 1.64039 17.5339 2.00983 17.5339 2.45058H23.8914C24.3417 2.45058 24.7192 2.59965 25.0238 2.8978C25.3284 3.19595 25.4807 3.56539 25.4807 4.00613C25.4807 4.44687 25.3284 4.81632 25.0238 5.11446C24.7192 5.41261 24.3417 5.56169 23.8914 5.56169V25.7839C23.8914 26.6395 23.5801 27.3719 22.9576 27.9811C22.3351 28.5904 21.5868 28.895 20.7126 28.895H4.8189ZM20.7126 5.56169H4.8189V25.7839H20.7126V5.56169ZM12.7658 17.8506L15.7856 20.8061C16.0769 21.0913 16.4478 21.2339 16.8981 21.2339C17.3484 21.2339 17.7193 21.0913 18.0107 20.8061C18.3021 20.5209 18.4478 20.158 18.4478 19.7172C18.4478 19.2765 18.3021 18.9135 18.0107 18.6284L14.9909 15.6728L18.0107 12.7172C18.3021 12.4321 18.4478 12.0691 18.4478 11.6284C18.4478 11.1876 18.3021 10.8246 18.0107 10.5395C17.7193 10.2543 17.3484 10.1117 16.8981 10.1117C16.4478 10.1117 16.0769 10.2543 15.7856 10.5395L12.7658 13.495L9.74595 10.5395C9.45457 10.2543 9.08371 10.1117 8.63339 10.1117C8.18307 10.1117 7.81221 10.2543 7.52083 10.5395C7.22944 10.8246 7.08375 11.1876 7.08375 11.6284C7.08375 12.0691 7.22944 12.4321 7.52083 12.7172L10.5406 15.6728L7.52083 18.6284C7.22944 18.9135 7.08375 19.2765 7.08375 19.7172C7.08375 20.158 7.22944 20.5209 7.52083 20.8061C7.81221 21.0913 8.18307 21.2339 8.63339 21.2339C9.08371 21.2339 9.45457 21.0913 9.74595 20.8061L12.7658 17.8506Z" fill="white"/>
</svg>
