<svg width="26" height="29" viewBox="0 0 26 29" fill="none" xmlns="http://www.w3.org/2000/svg">
<path d="M3.02756 28.895C2.32717 28.895 1.72761 28.6456 1.22885 28.1469C0.730091 27.6481 0.480713 27.0486 0.480713 26.3482C0.480713 25.6478 0.730091 25.0482 1.22885 24.5495C1.72761 24.0507 2.32717 23.8013 3.02756 23.8013H23.4023C24.1027 23.8013 24.7023 24.0507 25.201 24.5495C25.6998 25.0482 25.9491 25.6478 25.9491 26.3482C25.9491 27.0486 25.6998 27.6481 25.201 28.1469C24.7023 28.6456 24.1027 28.895 23.4023 28.895H3.02756ZM4.30098 21.2545C3.94018 21.2545 3.63774 21.1325 3.39367 20.8884C3.14959 20.6443 3.02756 20.3419 3.02756 19.9811V17.0204C3.02756 16.8506 3.05939 16.6861 3.12306 16.5269C3.18673 16.3677 3.28224 16.2245 3.40958 16.0971L14.552 4.95469L19.3274 9.73002L8.18491 20.8725C8.05757 20.9998 7.91431 21.0953 7.75514 21.159C7.59596 21.2227 7.43147 21.2545 7.26168 21.2545H4.30098ZM5.5744 18.7076H6.72048L15.7618 9.73002L14.552 8.52027L5.5744 17.5616V18.7076ZM20.76 8.32926L15.9846 3.55392L18.2768 1.26177C18.5102 1.00708 18.8074 0.885044 19.1682 0.895656C19.529 0.906268 19.8261 1.0283 20.0596 1.26177L23.0521 4.25431C23.2856 4.48777 23.4023 4.77959 23.4023 5.12978C23.4023 5.47997 23.2856 5.78241 23.0521 6.0371L20.76 8.32926Z" fill="white"/>
</svg>
